<svg width="19" height="14" viewBox="0 0 19 14" fill="none" xmlns="http://www.w3.org/2000/svg">
<path d="M19 1.68719V12.3128C19 12.7843 18.825 13.1833 18.475 13.51C18.125 13.8367 17.6974 14 17.1923 14H1.8077C1.30257 14 0.875002 13.8367 0.525001 13.51C0.175 13.1833 0 12.7843 0 12.3128V1.68719C0 1.21573 0.175 0.816669 0.525001 0.490002C0.875002 0.163334 1.30257 0 1.8077 0H17.1923C17.6974 0 18.125 0.163334 18.475 0.490002C18.825 0.816669 19 1.21573 19 1.68719ZM1.49998 3.6436H17.5V1.68719C17.5 1.61539 17.468 1.54956 17.4039 1.48972C17.3398 1.42989 17.2692 1.39998 17.1923 1.39998H1.8077C1.73077 1.39998 1.66025 1.42989 1.59613 1.48972C1.53203 1.54956 1.49998 1.61539 1.49998 1.68719V3.6436ZM1.49998 6.62305V12.3128C1.49998 12.3846 1.53203 12.4504 1.59613 12.5103C1.66025 12.5701 1.73077 12.6 1.8077 12.6H17.1923C17.2692 12.6 17.3398 12.5701 17.4039 12.5103C17.468 12.4504 17.5 12.3846 17.5 12.3128V6.62305H1.49998Z" fill="#1C1B1F"/>
</svg>
