<svg width="38" height="24" viewBox="0 0 38 24" fill="none" xmlns="http://www.w3.org/2000/svg">
<g clip-path="url(#clip0_383_2690)">
<rect width="37.7143" height="24" rx="12" fill="white"/>
<path d="M3.44827 -0.568848H35.3448C36.9828 -0.568848 38.3621 0.810463 38.3621 2.44839V20.5518C38.3621 22.1898 36.9828 23.5691 35.3448 23.5691H3.44827C1.81034 23.5691 0.43103 22.1898 0.43103 20.5518V2.44839C0.43103 0.810463 1.81034 -0.568848 3.44827 -0.568848Z" stroke="#D7D7D7"/>
<path d="M18.6965 12.3771V15.0307H17.8552V8.47803H20.0856C20.6509 8.47803 21.1329 8.66662 21.5273 9.04382C21.9304 9.42101 22.132 9.88153 22.132 10.4254C22.132 10.9693 21.9304 11.4429 21.5273 11.8157C21.1373 12.1886 20.6553 12.3728 20.0856 12.3728H18.6965V12.3771ZM18.6965 9.28504V11.5701H20.1031C20.4362 11.5701 20.7166 11.4561 20.9357 11.2324C21.1592 11.0087 21.2731 10.7368 21.2731 10.4298C21.2731 10.1228 21.1592 9.85961 20.9357 9.63592C20.7166 9.40347 20.4406 9.28943 20.1031 9.28943H18.6965V9.28504Z" fill="#3C4043"/>
<path d="M24.3318 10.3992C24.9541 10.3992 25.4448 10.5658 25.8042 10.8992C26.1635 11.2325 26.3432 11.6886 26.3432 12.2676V15.0307H25.5413V14.4079H25.5062C25.16 14.9211 24.6955 15.1755 24.1171 15.1755C23.6219 15.1755 23.21 15.0307 22.877 14.7369C22.544 14.443 22.3774 14.079 22.3774 13.6404C22.3774 13.1755 22.5527 12.8071 22.9033 12.5351C23.2538 12.2588 23.7227 12.1229 24.3055 12.1229C24.8051 12.1229 25.217 12.215 25.5369 12.3992V12.2062C25.5369 11.9123 25.4229 11.6667 25.1907 11.4606C24.9584 11.2544 24.6868 11.1536 24.3756 11.1536C23.9068 11.1536 23.5343 11.3509 23.2626 11.75L22.522 11.2851C22.9296 10.693 23.5343 10.3992 24.3318 10.3992ZM23.2451 13.6536C23.2451 13.8729 23.3371 14.0571 23.5255 14.2018C23.7096 14.3465 23.9287 14.4211 24.1784 14.4211C24.5334 14.4211 24.8489 14.2895 25.125 14.0264C25.401 13.7632 25.5413 13.4562 25.5413 13.1009C25.2783 12.8948 24.9146 12.7895 24.4458 12.7895C24.104 12.7895 23.8191 12.8729 23.5913 13.0351C23.359 13.2062 23.2451 13.4123 23.2451 13.6536Z" fill="#3C4043"/>
<path d="M30.9179 10.5439L28.1134 17.0001H27.2458L28.2887 14.7413L26.4395 10.5439H27.3554L28.6875 13.7632H28.705L30.0021 10.5439H30.9179Z" fill="#3C4043"/>
<path d="M15.35 11.842C15.35 11.5675 15.3255 11.3048 15.2799 11.0521H11.7532V12.4995H13.7843C13.7019 12.9815 13.4368 13.392 13.0306 13.6657V14.6048H14.2396C14.9455 13.9508 15.35 12.9841 15.35 11.842Z" fill="#4285F4"/>
<path d="M13.031 13.6659C12.6945 13.8931 12.2611 14.026 11.7541 14.026C10.7747 14.026 9.94389 13.3654 9.64635 12.4751H8.39923V13.4435C9.01709 14.6707 10.287 15.5128 11.7541 15.5128C12.7681 15.5128 13.62 15.179 14.24 14.6045L13.031 13.6659Z" fill="#34A853"/>
<path d="M9.52888 11.7566C9.52888 11.5066 9.57051 11.2649 9.64632 11.0378V10.0693H8.3992C8.14373 10.5768 8 11.1496 8 11.7566C8 12.3636 8.14417 12.9364 8.3992 13.4439L9.64632 12.4755C9.57051 12.2483 9.52888 12.0066 9.52888 11.7566Z" fill="#FABB05"/>
<path d="M11.7541 9.48684C12.3075 9.48684 12.8032 9.67763 13.1945 10.0504L14.2659 8.97895C13.6151 8.37237 12.7668 8 11.7541 8C10.2874 8 9.01709 8.8421 8.39923 10.0693L9.64635 11.0377C9.94389 10.1474 10.7747 9.48684 11.7541 9.48684Z" fill="#E94235"/>
</g>
<rect x="0.5" y="0.5" width="36.7143" height="23" rx="11.5" stroke="#3C4043"/>
<defs>
<clipPath id="clip0_383_2690">
<rect width="37.7143" height="24" rx="12" fill="white"/>
</clipPath>
</defs>
</svg>
