<svg width="38" height="24" viewBox="0 0 38 24" fill="none" xmlns="http://www.w3.org/2000/svg">
<g clip-path="url(#clip0_383_2670)">
<rect width="37.7143" height="24" rx="3" fill="white"/>
<g clip-path="url(#clip1_383_2670)">
<path d="M37 25.5H0C-1.9 25.5 -3.5 23.9 -3.5 22V1C-3.5 -0.9 -1.9 -2.5 0 -2.5H37C38.9 -2.5 40.5 -0.9 40.5 1V22C40.5 23.9 38.9 25.5 37 25.5Z" fill="#296BB4"/>
<path d="M0 -2C-1.7 -2 -3 -0.7 -3 1V22C-3 23.7 -1.7 25 0 25H37C38.7 25 40 23.7 40 22V1C40 -0.7 38.7 -2 37 -2H0ZM0 -3H37C39.2 -3 41 -1.2 41 1V22C41 24.2 39.2 26 37 26H0C-2.2 26 -4 24.2 -4 22V1C-4 -1.2 -2.2 -3 0 -3Z" fill="#D7D7D7"/>
<path d="M11.403 1.00305V22.7031H30.403V1.00305H11.403Z" fill="white"/>
<path d="M28.6955 15.8585L30.503 17.7341V13.9829L28.6955 15.8585ZM27.8921 12.6282L25.9841 14.8165L24.0761 12.6282H16.645V19.1929H21.9673V17.7341H18.2518V16.5879H21.8669V15.2333H18.2518V14.0871H21.9673V12.6282L24.9799 15.9627L21.9673 19.1929H23.9757L25.8837 17.0047L27.7917 19.1929H29.9005L26.8879 15.8585L29.9005 12.6282H27.8921ZM17.7497 7.00135L18.0509 6.16773L18.3522 7.00135L19.0551 8.66857H17.0467L17.7497 7.00135ZM17.0467 4.81311L14.235 11.3778H16.0425L16.5446 10.1274H19.6576L20.1597 11.3778H22.0677L19.1555 4.81311H17.0467ZM27.7917 4.81311L26.5866 8.14757L26.2854 9.08538L25.9841 8.14757L24.6787 4.81311H21.9673V11.3778H23.574V7.10555V6.27194L23.8753 7.10555L25.3816 11.3778H26.8879L28.4946 7.10555L28.7959 6.27194V11.482H30.4026V4.81311H27.7917ZM6.60303 -0.396973V24.403H30.503V20.4434H27.1892L25.9841 18.9845L24.6787 20.4434H15.3396V12.524H12.2266L16.0425 3.45849H19.7581L20.6618 5.54252V3.45849H25.2812L26.0845 5.64673L26.8879 3.45849H30.4026V1.53076V-0.396973H6.60303Z" fill="#286CB4"/>
</g>
</g>
<rect x="0.5" y="0.5" width="36.7143" height="23" rx="2.5" stroke="#D6D6D6"/>
<defs>
<clipPath id="clip0_383_2670">
<rect width="37.7143" height="24" rx="3" fill="white"/>
</clipPath>
<clipPath id="clip1_383_2670">
<rect width="45" height="29" fill="white" transform="translate(-4 -3)"/>
</clipPath>
</defs>
</svg>
