<svg width="38" height="24" viewBox="0 0 38 24" fill="none" xmlns="http://www.w3.org/2000/svg">
<g clip-path="url(#clip0_383_2796)">
<rect width="37.7143" height="24" rx="3" fill="white"/>
<g clip-path="url(#clip1_383_2796)">
<path d="M0 -2C-1.7 -2 -3 -0.7 -3 1V22C-3 23.7 -1.7 25 0 25H37C38.7 25 40 23.7 40 22V1C40 -0.7 38.7 -2 37 -2H0ZM0 -3H37C39.2 -3 41 -1.2 41 1V22C41 24.2 39.2 26 37 26H0C-2.2 26 -4 24.2 -4 22V1C-4 -1.2 -2.2 -3 0 -3Z" fill="#D7D7D7"/>
<path d="M21.9116 6.48169H15.9847V17.1006H21.9116V6.48169Z" fill="#7073B4"/>
<mask id="mask0_383_2796" style="mask-type:luminance" maskUnits="userSpaceOnUse" x="8" y="5" width="22" height="14">
<path d="M29.814 5H8V18.5H29.814V5Z" fill="white"/>
</mask>
<g mask="url(#mask0_383_2796)">
<path d="M16.314 11.7501C16.314 9.69213 17.3018 7.71652 18.8658 6.48177C15.9847 4.17689 11.7042 4.67079 9.48168 7.63421C7.25912 10.5976 7.6707 14.7958 10.6341 17.1007C13.1036 18.994 16.4786 18.994 18.9481 17.1007C17.3018 15.7836 16.314 13.808 16.314 11.7501Z" fill="#E41221"/>
<path d="M29.2378 15.9481V15.7012H29.3201H29.0731H29.1554L29.2378 15.9481ZM29.6493 15.7012H29.567L29.4847 15.8658L29.4024 15.7012H29.3201V15.9481H29.4024V15.7012L29.4847 15.8658H29.567L29.6493 15.7012Z" fill="#1EA1DB"/>
<path d="M29.814 11.75C29.814 15.4543 26.7682 18.5 23.064 18.5C21.5822 18.5 20.1005 18.0061 18.8658 17.0183C21.8292 14.7135 22.3231 10.433 20.0182 7.55187C19.689 7.14028 19.2774 6.7287 18.8658 6.39943C21.8292 4.17687 26.1097 4.67077 28.4146 7.63419C29.3201 8.78662 29.814 10.2683 29.814 11.75Z" fill="#1EA1DB"/>
</g>
</g>
</g>
<rect x="0.5" y="0.5" width="36.7143" height="23" rx="2.5" stroke="#D6D6D6"/>
<defs>
<clipPath id="clip0_383_2796">
<rect width="37.7143" height="24" rx="3" fill="white"/>
</clipPath>
<clipPath id="clip1_383_2796">
<rect width="45" height="29" fill="white" transform="translate(-4 -3)"/>
</clipPath>
</defs>
</svg>
