<svg width="38" height="24" viewBox="0 0 38 24" fill="none" xmlns="http://www.w3.org/2000/svg">
<g clip-path="url(#clip0_383_2826)">
<rect width="37.7143" height="24" rx="3" fill="white"/>
<g clip-path="url(#clip1_383_2826)">
<path d="M0 -2.5H37C38.9 -2.5 40.5 -0.9 40.5 1V22C40.5 23.9 38.9 25.5 37 25.5H0C-1.9 25.5 -3.5 23.9 -3.5 22V1C-3.5 -0.9 -1.9 -2.5 0 -2.5Z" stroke="#D7D7D7"/>
<g clip-path="url(#clip2_383_2826)">
<path fill-rule="evenodd" clip-rule="evenodd" d="M18.3028 5.09863H20.9148C22.3172 5.09863 22.8451 5.78218 22.7636 6.7864C22.6287 8.4443 21.5877 9.36153 20.2068 9.36153H19.5097C19.3202 9.36153 19.1928 9.48227 19.1415 9.80944L18.8455 11.7114C18.826 11.8348 18.7586 11.9062 18.6574 11.9159H17.0163C16.8619 11.9159 16.8073 11.8023 16.8478 11.5563L17.8483 5.45891C17.8874 5.21483 18.0263 5.09863 18.3028 5.09863Z" fill="#009EE3"/>
<path fill-rule="evenodd" clip-rule="evenodd" d="M8.45213 14.0737C9.33337 14.0737 10.1465 14.534 10.0353 15.681C9.9004 17.0442 9.14188 17.7985 7.9451 17.8017H6.89936C6.749 17.8017 6.67618 17.9199 6.63708 18.162L6.4348 19.3999C6.40446 19.5869 6.30467 19.6791 6.15769 19.6791H5.18476C5.02968 19.6791 4.97574 19.5836 5.01013 19.3701L5.81315 14.4087C5.85293 14.1646 5.948 14.0737 6.12128 14.0737H8.45213ZM6.86767 16.73H7.6599C8.15547 16.7118 8.4845 16.3814 8.51753 15.7855C8.53776 15.4175 8.27953 15.1539 7.86891 15.1558L7.1232 15.1591L6.86767 16.73ZM12.6803 19.2993C12.7693 19.2214 12.8596 19.1812 12.8468 19.2772L12.8151 19.507C12.799 19.6271 12.8482 19.6907 12.9642 19.6907H13.8285C13.9742 19.6907 14.045 19.6343 14.0807 19.4175L14.6134 16.199C14.6403 16.0374 14.5992 15.9582 14.4718 15.9582H13.5211C13.4355 15.9582 13.3936 16.0043 13.3714 16.1302L13.3363 16.3282C13.3181 16.4314 13.2689 16.4496 13.2231 16.3457C13.0619 15.9783 12.6506 15.8134 12.0769 15.8264C10.7439 15.853 9.84512 16.8274 9.7487 18.0763C9.67453 19.0422 10.3933 19.8011 11.3413 19.8011C12.029 19.8011 12.3364 19.6064 12.683 19.3013L12.6803 19.2993ZM11.9562 18.804C11.3824 18.804 10.9826 18.3632 11.0655 17.8232C11.1484 17.2831 11.6851 16.8423 12.2589 16.8423C12.8327 16.8423 13.2325 17.2831 13.1496 17.8232C13.0666 18.3632 12.5306 18.804 11.9562 18.804ZM16.305 15.9478H15.4285C15.2478 15.9478 15.1743 16.0776 15.2316 16.2373L16.3199 19.3051L15.2525 20.7651C15.1629 20.8871 15.2323 20.9981 15.3584 20.9981H16.3435C16.4608 21.0111 16.5754 20.9572 16.6361 20.8598L19.983 16.238C20.0862 16.0958 20.0376 15.9465 19.8684 15.9465H18.9359C18.7761 15.9465 18.7121 16.0075 18.6204 16.1354L17.2247 18.0828L16.601 16.1309C16.5646 16.0127 16.4736 15.9478 16.3057 15.9478H16.305Z" fill="#113984"/>
<path fill-rule="evenodd" clip-rule="evenodd" d="M23.4648 14.0737C24.346 14.0737 25.1591 14.5339 25.0479 15.681C24.913 17.0441 24.1545 17.7985 22.9577 17.8017H21.9127C21.7623 17.8017 21.6895 17.9198 21.6504 18.162L21.4481 19.3999C21.4178 19.5868 21.318 19.679 21.171 19.679H20.1981C20.043 19.679 19.9891 19.5836 20.0234 19.37L20.8278 14.4073C20.8676 14.1633 20.9627 14.0724 21.1359 14.0724H23.4648V14.0737ZM21.8803 16.73H22.6725C23.1681 16.7118 23.4971 16.3814 23.5302 15.7855C23.5504 15.4174 23.2922 15.1539 22.8815 15.1558L22.1358 15.159L21.8803 16.73ZM27.6929 19.2993C27.7819 19.2214 27.8723 19.1811 27.8595 19.2772L27.8278 19.507C27.8116 19.6271 27.8608 19.6907 27.9768 19.6907H28.8412C28.9868 19.6907 29.0576 19.6342 29.0933 19.4174L29.626 16.199C29.653 16.0373 29.6118 15.9581 29.4844 15.9581H28.5351C28.4494 15.9581 28.4076 16.0042 28.3854 16.1302L28.3503 16.3281C28.3321 16.4314 28.2829 16.4495 28.237 16.3457C28.0759 15.9783 27.6646 15.8134 27.0908 15.8264C25.7579 15.853 24.8591 16.8273 24.7627 18.0763C24.6885 19.0422 25.4073 19.801 26.3552 19.801C27.043 19.801 27.3504 19.6063 27.697 19.3012L27.6929 19.2993ZM26.9695 18.804C26.3957 18.804 25.9959 18.3632 26.0788 17.8231C26.1617 17.283 26.6984 16.8423 27.2722 16.8423C27.846 16.8423 28.2458 17.283 28.1629 17.8231C28.0799 18.3632 27.5433 18.804 26.9695 18.804ZM30.9563 19.6959H29.9584C29.893 19.6985 29.8384 19.6504 29.835 19.5875C29.835 19.5803 29.835 19.5732 29.8363 19.5661L30.7129 14.2197C30.7304 14.1444 30.7985 14.0906 30.8787 14.0899H31.8766C31.942 14.0873 31.9966 14.1354 32 14.1983C32 14.2055 32 14.2126 31.9986 14.2197L31.1221 19.5661C31.1053 19.642 31.0365 19.6959 30.9563 19.6972V19.6959Z" fill="#009EE3"/>
<path fill-rule="evenodd" clip-rule="evenodd" d="M16.6691 3H19.2838C20.0201 3 20.8939 3.02272 21.4778 3.51931C21.8682 3.85102 22.0731 4.37877 22.0259 4.94742C21.8655 6.86952 20.6714 7.94645 19.0694 7.94645H17.7802C17.5604 7.94645 17.4155 8.08666 17.3534 8.46576L16.9934 10.6728C16.9698 10.8156 16.9057 10.9 16.7911 10.9104H15.1777C14.999 10.9104 14.9356 10.7806 14.9821 10.4937L16.1418 3.41934C16.1883 3.13502 16.3508 3 16.6691 3Z" fill="#113984"/>
<path fill-rule="evenodd" clip-rule="evenodd" d="M17.3912 8.24181L17.8477 5.45894C17.8875 5.21487 18.0264 5.09802 18.3028 5.09802H20.9148C21.347 5.09802 21.6969 5.16294 21.9707 5.28303C21.7084 6.99416 20.5588 7.9445 19.0539 7.9445H17.7668C17.5942 7.9445 17.4674 8.02824 17.3912 8.24181Z" fill="#172C70"/>
</g>
</g>
</g>
<rect x="0.5" y="0.5" width="36.7143" height="23" rx="2.5" stroke="#D6D6D6"/>
<defs>
<clipPath id="clip0_383_2826">
<rect width="37.7143" height="24" rx="3" fill="white"/>
</clipPath>
<clipPath id="clip1_383_2826">
<rect width="45" height="29" fill="white" transform="translate(-4 -3)"/>
</clipPath>
<clipPath id="clip2_383_2826">
<rect width="27" height="18" fill="white" transform="translate(5 3)"/>
</clipPath>
</defs>
</svg>
