<svg width="38" height="24" viewBox="0 0 38 24" fill="none" xmlns="http://www.w3.org/2000/svg">
<g clip-path="url(#clip0_363_2550)">
<rect width="37.7143" height="24" rx="3" fill="white"/>
<path d="M3.3524 0.413818H34.3619C35.9543 0.413818 37.2953 1.73796 37.2953 3.31037V20.6897C37.2953 22.2621 35.9543 23.5862 34.3619 23.5862H3.3524C1.76002 23.5862 0.419067 22.2621 0.419067 20.6897V3.31037C0.419067 1.73796 1.76002 0.413818 3.3524 0.413818Z" stroke="#D7D7D7"/>
<path d="M10.8277 8.47651C11.1267 8.08277 11.3261 7.5906 11.3261 7C10.8277 7.09843 10.3293 7.39374 10.0302 7.78747C9.63148 8.08277 9.5318 8.67338 9.5318 9.16555C10.0302 9.16555 10.5286 8.96868 10.8277 8.47651Z" fill="#010202"/>
<path d="M11.3261 9.16553C10.5286 9.16553 9.93051 9.55926 9.63146 9.55926C9.23272 9.55926 8.7343 9.16553 8.1362 9.16553C7.33872 9.16553 6.64094 9.6577 6.34188 10.2483C5.74378 11.7248 5.94315 13.3982 6.8403 14.5794C7.23904 15.0716 7.63778 15.6622 8.23588 15.6622C8.83398 15.6622 9.03335 15.2684 9.73114 15.2684C10.4289 15.2684 10.5286 15.6622 11.2264 15.6622C11.9242 15.6622 12.2232 15.17 12.622 14.5794C12.921 14.1857 13.1204 13.7919 13.2201 13.3982C12.5223 13.1029 12.0239 12.4138 12.0239 11.6264C12.0239 10.9373 12.4226 10.2483 13.0207 9.953C12.5223 9.55926 11.9242 9.26396 11.3261 9.16553Z" fill="#010202"/>
<path d="M17.6061 7.68908C19.0017 7.59065 20.1979 8.67342 20.2976 10.0515C20.2976 10.1499 20.2976 10.2484 20.2976 10.3468C20.2976 11.7249 19.2011 12.9061 17.8055 13.0045C17.7058 13.0045 17.6061 13.0045 17.6061 13.0045H15.8118V15.7607H14.5159V7.68908H17.6061ZM15.9115 12.0202H17.4068C18.3039 12.1186 19.0017 11.528 19.2011 10.6421C19.2011 10.5437 19.2011 10.4452 19.2011 10.4452C19.2011 9.36246 18.603 8.87029 17.4068 8.87029H15.9115V12.0202Z" fill="#010202"/>
<path d="M20.6964 14.0873C20.6964 13.0045 21.4939 12.4139 22.8895 12.3155L24.4844 12.217V11.7249C24.4844 11.0358 23.986 10.6421 23.2882 10.6421C22.6901 10.5437 22.1917 10.9374 21.9923 11.4296H20.8958C21.0951 10.2484 22.092 9.36246 23.3879 9.55933C24.8831 9.55933 25.7803 10.3468 25.7803 11.528V15.5638H24.6838V14.5795C24.285 15.2685 23.5872 15.6622 22.7898 15.6622C21.8926 15.8591 20.9955 15.1701 20.7961 14.2842C20.6964 14.2842 20.6964 14.1857 20.6964 14.0873ZM24.4844 13.5951V13.103L22.9891 13.2014C22.1917 13.2998 21.8926 13.5951 21.8926 14.0873C21.8926 14.5795 22.391 14.8748 22.9891 14.8748C23.7866 14.9732 24.3847 14.3826 24.4844 13.6936V13.5951Z" fill="#010202"/>
<path d="M26.8768 17.9262V16.9419H27.2755C27.7739 16.9419 28.073 16.745 28.372 16.1544L28.4717 15.7607L26.3784 9.85461H27.6742L29.1695 14.6779L30.6648 9.85461H31.9607L29.7676 16.056C29.2692 17.5325 28.6711 17.9262 27.3752 17.9262C27.1758 18.0246 27.0761 18.0246 26.8768 17.9262Z" fill="#010202"/>
</g>
<rect x="0.5" y="0.5" width="36.7143" height="23" rx="2.5" stroke="#1A1A1A"/>
<defs>
<clipPath id="clip0_363_2550">
<rect width="37.7143" height="24" rx="3" fill="white"/>
</clipPath>
</defs>
</svg>
