<svg width="38" height="24" viewBox="0 0 38 24" fill="none" xmlns="http://www.w3.org/2000/svg">
<g clip-path="url(#clip0_363_2575)">
<rect width="37.7143" height="24" rx="3" fill="white"/>
<g clip-path="url(#clip1_363_2575)">
<rect width="37.2414" height="24" rx="3" fill="white"/>
<path d="M3.31037 0.413818H33.9311C35.5035 0.413818 36.8276 1.73796 36.8276 3.31037V20.6897C36.8276 22.2621 35.5035 23.5862 33.9311 23.5862H3.31037C1.73796 23.5862 0.413818 22.2621 0.413818 20.6897V3.31037C0.413818 1.73796 1.73796 0.413818 3.31037 0.413818Z" stroke="#D7D7D7"/>
<path d="M21.6273 6.70349H15.6687V17.3794H21.6273V6.70349Z" fill="#EB611C"/>
<path d="M15.9997 12C15.9997 9.93105 16.9101 7.94485 18.5652 6.70347C15.6687 4.38623 11.3652 4.88278 9.048 7.77933C6.73076 10.6759 7.22732 14.9793 10.2066 17.2966C11.3652 18.2069 12.8549 18.7862 14.4273 18.7862C15.917 18.7862 17.4066 18.2897 18.648 17.2966C16.9928 16.0552 15.9997 14.069 15.9997 12Z" fill="#E41221"/>
<path d="M29.5721 12C29.5721 15.7242 26.5101 18.7862 22.7859 18.7862C21.2963 18.7862 19.8066 18.2897 18.5652 17.2966C21.5446 14.9793 22.0411 10.6759 19.6411 7.77933C19.3101 7.36554 18.979 6.95174 18.5652 6.70347C21.5446 4.38623 25.848 4.88278 28.1652 7.77933C29.0756 9.02071 29.5721 10.5104 29.5721 12Z" fill="#F59E1E"/>
</g>
</g>
<rect x="0.5" y="0.5" width="36.7143" height="23" rx="2.5" stroke="#D6D6D6"/>
<defs>
<clipPath id="clip0_363_2575">
<rect width="37.7143" height="24" rx="3" fill="white"/>
</clipPath>
<clipPath id="clip1_363_2575">
<rect width="37.2414" height="24" rx="3" fill="white"/>
</clipPath>
</defs>
</svg>
