<svg width="38" height="24" viewBox="0 0 38 24" fill="none" xmlns="http://www.w3.org/2000/svg">
<g clip-path="url(#clip0_383_2853)">
<rect width="37.7143" height="24" rx="3" fill="white"/>
<g clip-path="url(#clip1_383_2853)">
<path d="M0 -2.5H37C38.9 -2.5 40.5 -0.9 40.5 1V22C40.5 23.9 38.9 25.5 37 25.5H0C-1.9 25.5 -3.5 23.9 -3.5 22V1C-3.5 -0.9 -1.9 -2.5 0 -2.5Z" stroke="#D7D7D7"/>
<mask id="mask0_383_2853" style="mask-type:luminance" maskUnits="userSpaceOnUse" x="2" y="6" width="33" height="11">
<path d="M34.447 6.33105H2.547V16.6311H34.447V6.33105Z" fill="white"/>
</mask>
<g mask="url(#mask0_383_2853)">
<path d="M23.347 6.33105C21.047 6.33105 19.047 7.53105 19.047 9.63105C19.047 12.1311 22.647 12.3311 22.647 13.5311C22.647 14.0311 22.047 14.5311 21.047 14.5311C20.147 14.5311 19.247 14.3311 18.447 13.8311L17.947 16.0311C18.847 16.4311 19.847 16.6311 20.847 16.6311C23.347 16.6311 25.247 15.4311 25.247 13.2311C25.247 10.6311 21.647 10.4311 21.647 9.23105C21.647 8.83105 22.147 8.33105 23.147 8.33105C23.847 8.33105 24.547 8.53105 25.247 8.83105L25.747 6.73105C25.047 6.43105 24.147 6.33105 23.347 6.33105ZM2.647 6.53105L2.547 6.83105C3.147 6.93105 3.747 7.13105 4.347 7.33105C5.447 7.73105 5.547 7.93105 5.747 8.73105L7.747 16.5311H10.447L14.647 6.53105H11.947L9.247 13.3311L8.147 7.53105C8.047 6.93105 7.547 6.43105 6.947 6.53105H2.647ZM15.747 6.53105L13.647 16.5311H16.247L18.347 6.53105H15.747ZM30.147 6.53105C29.547 6.53105 29.047 6.93105 28.947 7.43105L25.147 16.5311H27.847L28.347 15.0311H31.647L31.947 16.5311H34.347L32.247 6.53105H30.147ZM30.547 9.23105L31.347 13.0311H29.147L30.547 9.23105Z" fill="#2D4899"/>
</g>
</g>
</g>
<rect x="0.5" y="0.5" width="36.7143" height="23" rx="2.5" stroke="#D6D6D6"/>
<defs>
<clipPath id="clip0_383_2853">
<rect width="37.7143" height="24" rx="3" fill="white"/>
</clipPath>
<clipPath id="clip1_383_2853">
<rect width="45" height="29" fill="white" transform="translate(-4 -3)"/>
</clipPath>
</defs>
</svg>
