<svg width="38" height="24" viewBox="0 0 38 24" fill="none" xmlns="http://www.w3.org/2000/svg">
<g clip-path="url(#clip0_2747_18920)">
<path d="M30.0205 5.98804H21.1718L20.272 7.00088L17.3518 10.2867L16.4519 11.2996H7.72019L8.60638 10.274L9.0259 9.78878L9.91208 8.76322H5.8889C5.15403 8.76322 4.55255 9.3794 4.55255 10.1327V13.0223C4.55255 13.7756 5.15403 14.3923 5.8889 14.3923H21.2925C22.0274 14.3923 23.0314 13.9344 23.524 13.3752L25.854 10.7267L30.0224 5.98851L30.0205 5.98804Z" fill="#005697"/>
<path d="M31.7985 2.89868C32.5334 2.89868 33.1349 3.51487 33.1349 4.26861V7.15826C33.1349 7.91153 32.5334 8.52772 31.7985 8.52772H27.7881L28.6823 7.51017L29.1258 7.00563L30.0205 5.98808H21.1718L16.4515 11.3029H7.66553L13.9664 4.18287L14.2049 3.91341C14.6989 3.35517 15.7044 2.89868 16.4392 2.89868H31.7985Z" fill="#FBD500"/>
<path fill-rule="evenodd" clip-rule="evenodd" d="M7.56318 19.3045C7.56318 19.1156 7.51887 18.9526 7.42978 18.8146C7.34069 18.6765 7.22379 18.5715 7.07861 18.4989C7.22379 18.4264 7.33645 18.319 7.41611 18.1777C7.49578 18.0363 7.53584 17.8766 7.53584 17.6986V17.6006C7.53584 17.3829 7.49389 17.2016 7.41046 17.056C7.32702 16.9109 7.20965 16.7945 7.05881 16.7079C6.90797 16.6207 6.72744 16.5581 6.51673 16.5199C6.30603 16.4817 6.07175 16.4629 5.81391 16.4629C5.72671 16.4629 5.6362 16.4648 5.54146 16.4685C5.44671 16.4723 5.35526 16.4766 5.26617 16.4822C5.17708 16.4879 5.09553 16.494 5.02106 16.5015C4.94658 16.5091 4.88577 16.5161 4.83864 16.5232C4.73352 16.5416 4.65904 16.5741 4.6152 16.6212C4.57184 16.6683 4.54968 16.754 4.54968 16.877V20.1864C4.54968 20.3098 4.57231 20.3951 4.61756 20.4422C4.66281 20.4893 4.74012 20.5218 4.84901 20.5402C4.90321 20.551 4.96874 20.5599 5.0451 20.5675C5.12146 20.5746 5.20395 20.5811 5.29304 20.5863C5.38213 20.5915 5.47358 20.5962 5.56832 20.6C5.6626 20.6033 5.75546 20.6056 5.84596 20.6056C6.08212 20.6056 6.30414 20.5873 6.51343 20.551C6.72225 20.5147 6.90373 20.4502 7.05787 20.3578C7.21201 20.2655 7.33457 20.1402 7.42554 19.9824C7.51605 19.8246 7.56177 19.6258 7.56177 19.386V19.3045H7.56318ZM6.6374 17.7424C6.6374 17.8003 6.62845 17.8559 6.61006 17.9087C6.59168 17.9614 6.56198 18.0066 6.52003 18.0448C6.47808 18.083 6.42198 18.1136 6.35128 18.1371C6.28057 18.1607 6.19054 18.1725 6.08165 18.1725H5.47169V17.2308C5.4896 17.2308 5.51789 17.2298 5.55607 17.2279C5.59425 17.2261 5.63432 17.2251 5.6758 17.2251H5.88556C6.16508 17.2251 6.36023 17.2604 6.47101 17.3311C6.58178 17.4018 6.63693 17.5115 6.63693 17.6604V17.7419L6.6374 17.7424ZM6.49835 19.7181C6.60535 19.6347 6.65909 19.5165 6.65909 19.3643V19.3045C6.65909 19.174 6.61713 19.0605 6.5337 18.9644C6.45027 18.8683 6.29943 18.8202 6.08165 18.8202H5.47169V19.8382H5.56691C5.60886 19.8382 5.65223 19.8392 5.69748 19.8411C5.74273 19.843 5.78657 19.8439 5.82805 19.8439H5.91808C6.19761 19.8439 6.39087 19.802 6.49835 19.7186V19.7181ZM10.5479 18.5041C10.5479 18.3048 10.5178 18.1348 10.4579 17.9953C10.398 17.8559 10.3137 17.7414 10.2048 17.6524C10.0959 17.5634 9.96248 17.4983 9.80457 17.4564C9.64666 17.4145 9.4699 17.3938 9.2738 17.3938C9.09232 17.3938 8.91509 17.4065 8.74303 17.4319C8.57051 17.4574 8.43334 17.4828 8.332 17.5082C8.26317 17.5266 8.22829 17.5662 8.22829 17.6279V18.0688C8.22829 18.1051 8.23725 18.1305 8.25563 18.1451C8.27355 18.1598 8.29711 18.1673 8.32634 18.1673H8.35368C8.39752 18.1635 8.45173 18.1588 8.51725 18.1536C8.58277 18.1484 8.6563 18.1437 8.73785 18.14C8.8194 18.1367 8.90472 18.1338 8.99381 18.132C9.0829 18.1301 9.17057 18.1291 9.25778 18.1291C9.38505 18.1291 9.48451 18.1527 9.5571 18.1998C9.62969 18.2469 9.66599 18.3487 9.66599 18.5046V18.7006H9.37185C8.9033 18.7006 8.56297 18.7741 8.35038 18.921C8.13779 19.068 8.03173 19.3012 8.03173 19.6206V19.6696C8.03173 19.8472 8.05813 19.9961 8.11045 20.1157C8.16324 20.2354 8.23301 20.3315 8.32021 20.4045C8.40742 20.477 8.5064 20.5289 8.61718 20.5595C8.72795 20.5906 8.84344 20.6056 8.96317 20.6056C9.12673 20.6056 9.2672 20.584 9.38505 20.5402C9.50289 20.4968 9.61461 20.4365 9.7202 20.3607V20.4478C9.7202 20.477 9.73104 20.5025 9.75272 20.5241C9.7744 20.5458 9.79986 20.5566 9.82908 20.5566H10.439C10.4678 20.5566 10.4932 20.5458 10.5154 20.5241C10.5371 20.5025 10.5479 20.477 10.5479 20.4478V18.5046V18.5041ZM9.47225 19.9056C9.54673 19.8821 9.61649 19.8538 9.68201 19.8213V19.2225H9.37138C9.2771 19.2225 9.19885 19.2305 9.1371 19.247C9.07535 19.2635 9.02633 19.288 8.99004 19.3205C8.95374 19.353 8.92829 19.3949 8.91367 19.4458C8.89906 19.4967 8.89199 19.5546 8.89199 19.6201V19.6691C8.89199 19.785 8.9198 19.8594 8.97637 19.8919C9.03246 19.9244 9.11872 19.9409 9.23515 19.9409C9.31858 19.9409 9.39777 19.9292 9.47225 19.9056ZM13.881 20.4417V18.629C13.881 18.4584 13.8674 18.2978 13.84 18.1475C13.8127 17.9972 13.7636 17.8663 13.6929 17.7556C13.6222 17.6449 13.5242 17.5568 13.3988 17.4917C13.2734 17.4263 13.1132 17.3938 12.9171 17.3938C12.7427 17.3938 12.5885 17.415 12.4542 17.4569C12.3198 17.4988 12.1779 17.5728 12.0295 17.6788V17.5469C12.0295 17.5177 12.0186 17.4922 11.9969 17.4701C11.9753 17.4479 11.9498 17.4371 11.9206 17.4371H11.3106C11.2814 17.4371 11.2559 17.4479 11.2343 17.4696C11.2126 17.4913 11.2017 17.5167 11.2017 17.5459V20.4417C11.2017 20.4709 11.2135 20.4973 11.2371 20.5204C11.2606 20.5439 11.287 20.5557 11.3158 20.5557H11.9748C12.004 20.5557 12.0295 20.5439 12.0511 20.5204C12.0728 20.4968 12.0837 20.4704 12.0837 20.4417V18.302C12.1779 18.2511 12.267 18.2097 12.3505 18.1772C12.4339 18.1447 12.5154 18.1282 12.5956 18.1282C12.6757 18.1282 12.7474 18.1362 12.7997 18.1527C12.8525 18.1692 12.893 18.197 12.9222 18.237C12.9515 18.2766 12.9713 18.3293 12.9821 18.3944C12.993 18.4594 12.9986 18.5394 12.9986 18.6332V20.4417C12.9986 20.4709 13.0095 20.4968 13.0311 20.5204C13.0528 20.5439 13.0783 20.5557 13.1075 20.5557H13.7665C13.7952 20.5557 13.8216 20.5439 13.8452 20.5204C13.8688 20.4968 13.8806 20.4704 13.8806 20.4417H13.881ZM16.5608 19.9136V20.3979C16.5608 20.4379 16.5518 20.4657 16.5334 20.4822C16.5151 20.4987 16.4863 20.5124 16.4462 20.5232C16.3699 20.5416 16.2709 20.5595 16.1493 20.5778C16.0277 20.5958 15.8848 20.6052 15.7217 20.6052C15.3366 20.6052 15.0293 20.4874 14.7988 20.2514C14.5683 20.0154 14.4528 19.6743 14.4528 19.2282V18.7712C14.4528 18.3246 14.5683 17.9836 14.7988 17.748C15.0293 17.512 15.3371 17.3942 15.7217 17.3942C15.8853 17.3942 16.0277 17.4032 16.1493 17.4216C16.2709 17.4399 16.3699 17.4578 16.4462 17.4762C16.4863 17.487 16.5151 17.5007 16.5334 17.5172C16.5514 17.5337 16.5608 17.5615 16.5608 17.6015V18.0858C16.5608 18.115 16.5509 18.1376 16.5306 18.1536C16.5108 18.1701 16.4863 18.1781 16.4571 18.1781H16.4462C16.3444 18.1673 16.2473 18.1583 16.1549 18.1508C16.0625 18.1437 15.9381 18.14 15.7821 18.14C15.7203 18.14 15.6623 18.1499 15.6077 18.1701C15.553 18.1899 15.5059 18.2248 15.4663 18.2738C15.4262 18.3227 15.3946 18.3878 15.371 18.4697C15.3475 18.5512 15.3357 18.652 15.3357 18.7717V19.2287C15.3357 19.3483 15.3475 19.4491 15.371 19.5306C15.3946 19.6121 15.4262 19.6776 15.4663 19.7266C15.5063 19.7756 15.5535 19.81 15.6077 19.8302C15.6623 19.85 15.7203 19.8604 15.7821 19.8604C15.9381 19.8604 16.0625 19.8566 16.1549 19.8495C16.2478 19.8425 16.3444 19.8331 16.4462 19.8222H16.4571C16.4863 19.8222 16.5108 19.8302 16.5306 19.8467C16.5504 19.8632 16.5608 19.8858 16.5608 19.915V19.9136ZM19.5837 18.8084C19.5837 18.5908 19.5535 18.3948 19.4937 18.2205C19.4338 18.0462 19.3461 17.8983 19.2316 17.7768C19.1171 17.6552 18.9752 17.561 18.8059 17.4936C18.6367 17.4267 18.4411 17.3928 18.2191 17.3928C17.9971 17.3928 17.8014 17.4267 17.6322 17.4936C17.463 17.5605 17.3202 17.6552 17.2037 17.7768C17.0873 17.8983 16.9992 18.0462 16.9393 18.2205C16.879 18.3948 16.8493 18.5908 16.8493 18.8084V19.1896C16.8493 19.4072 16.8794 19.6032 16.9393 19.7775C16.9992 19.9518 17.0873 20.0997 17.2037 20.2212C17.3202 20.3428 17.463 20.437 17.6322 20.5044C17.8014 20.5713 17.9971 20.6052 18.2191 20.6052C18.4411 20.6052 18.6367 20.5713 18.8059 20.5044C18.9752 20.437 19.1171 20.3428 19.2316 20.2212C19.3461 20.0997 19.4333 19.9518 19.4937 19.7775C19.5535 19.6032 19.5837 19.4072 19.5837 19.1896V18.8084ZM18.2191 19.859C18.5406 19.859 18.7013 19.6357 18.7013 19.1896V18.8084C18.7013 18.3656 18.5406 18.1442 18.2191 18.1442C18.0602 18.1442 17.9391 18.1998 17.8561 18.3105C17.7732 18.4212 17.7317 18.5875 17.7317 18.8084V19.1896C17.7317 19.411 17.7732 19.5777 17.8561 19.6903C17.9391 19.8029 18.0602 19.859 18.2191 19.859ZM22.8244 20.4412V18.6285C22.8244 18.458 22.8108 18.2973 22.7834 18.147C22.7561 17.9968 22.707 17.8658 22.6363 17.7551C22.5656 17.6444 22.4676 17.5563 22.3422 17.4913C22.2168 17.4258 22.0561 17.3933 21.86 17.3933C21.6856 17.3933 21.5314 17.4145 21.3971 17.4564C21.2628 17.4983 21.1209 17.5723 20.9724 17.6783V17.5464C20.9724 17.5172 20.9615 17.4917 20.9394 17.4696C20.9177 17.4475 20.8923 17.4366 20.8635 17.4366H20.2535C20.2243 17.4366 20.1993 17.4475 20.1772 17.4691C20.1555 17.4908 20.1447 17.5162 20.1447 17.5455V20.4412C20.1447 20.4704 20.1564 20.4968 20.18 20.5199C20.2036 20.5435 20.23 20.5552 20.2592 20.5552H20.9182C20.9474 20.5552 20.9724 20.5435 20.9945 20.5199C21.0162 20.4963 21.0271 20.47 21.0271 20.4412V18.3015C21.1213 18.2507 21.2104 18.2092 21.2939 18.1767C21.3773 18.1442 21.4588 18.1277 21.539 18.1277C21.6191 18.1277 21.6908 18.1357 21.7431 18.1522C21.7959 18.1687 21.8364 18.1965 21.8656 18.2365C21.8949 18.2761 21.9147 18.3289 21.9255 18.3939C21.9363 18.4589 21.9415 18.539 21.9415 18.6327V20.4412C21.9415 20.4704 21.9524 20.4963 21.9741 20.5199C21.9957 20.5435 22.0212 20.5552 22.0504 20.5552H22.7094C22.7386 20.5552 22.765 20.5435 22.7886 20.5199C22.8122 20.4963 22.8239 20.47 22.8239 20.4412H22.8244ZM25.1992 20.0323V20.4535C25.1992 20.5147 25.1648 20.5505 25.0955 20.5614C25.0121 20.576 24.9395 20.5868 24.8777 20.5939C24.816 20.6009 24.7453 20.6047 24.6651 20.6047C24.5171 20.6047 24.3861 20.5929 24.2725 20.5694C24.1589 20.5458 24.0641 20.4996 23.9882 20.4304C23.9128 20.3616 23.8548 20.266 23.8153 20.1444C23.7757 20.0229 23.7559 19.866 23.7559 19.6738V18.0952L23.3203 18.0245C23.2911 18.0175 23.2647 18.0038 23.2411 17.9836C23.2175 17.9638 23.2058 17.9393 23.2058 17.9101V17.5506C23.2058 17.5214 23.2175 17.4955 23.2411 17.4715C23.2647 17.4479 23.2911 17.4362 23.3203 17.4362H23.7559V16.9896C23.7559 16.9604 23.7667 16.9373 23.7884 16.9189C23.8101 16.901 23.8355 16.8883 23.8643 16.8807L24.5247 16.7667H24.5407C24.5695 16.7667 24.593 16.7748 24.6109 16.7912C24.6288 16.8077 24.6378 16.8303 24.6378 16.8595V17.4366H25.0842C25.1134 17.4366 25.1384 17.4475 25.1606 17.4696C25.1822 17.4917 25.1931 17.5172 25.1931 17.5464V17.9911C25.1931 18.0203 25.1822 18.0462 25.1606 18.0679C25.1389 18.09 25.1134 18.1009 25.0842 18.1009H24.6378V19.6847C24.6378 19.7935 24.6468 19.8632 24.6651 19.8943C24.6831 19.9249 24.734 19.9405 24.8174 19.9405H25.0842C25.1606 19.9405 25.1987 19.9711 25.1987 20.0323H25.1992ZM28.1076 18.5036C28.1076 18.3044 28.0779 18.1343 28.0176 17.9949C27.9577 17.8554 27.8733 17.741 27.7644 17.6519C27.6555 17.5629 27.5221 17.4979 27.3642 17.4559C27.2063 17.414 27.0296 17.3933 26.8335 17.3933C26.6515 17.3933 26.4747 17.406 26.3027 17.4314C26.1302 17.4569 25.993 17.4823 25.8917 17.5078C25.8224 17.5261 25.788 17.5657 25.788 17.6274V18.0684C25.788 18.1046 25.7969 18.1301 25.8153 18.1447C25.8337 18.1593 25.8572 18.1668 25.886 18.1668H25.9133C25.9572 18.163 26.0114 18.1583 26.0769 18.1532C26.1424 18.148 26.216 18.1433 26.2975 18.1395C26.3791 18.1362 26.4644 18.1334 26.5535 18.1315C26.6426 18.1296 26.7307 18.1287 26.8174 18.1287C26.9447 18.1287 27.0446 18.1522 27.1172 18.1993C27.1898 18.2464 27.2261 18.3482 27.2261 18.5041V18.7001H26.932C26.4634 18.7001 26.1231 18.7736 25.9105 18.9206C25.6979 19.0675 25.5919 19.3007 25.5919 19.6201V19.6691C25.5919 19.8467 25.6183 19.9956 25.6706 20.1152C25.7229 20.2349 25.7931 20.331 25.8803 20.404C25.9675 20.4766 26.0665 20.5284 26.1773 20.559C26.2881 20.5901 26.4031 20.6052 26.5233 20.6052C26.6869 20.6052 26.8273 20.5835 26.9452 20.5397C27.063 20.4964 27.1747 20.4361 27.2803 20.3602V20.4474C27.2803 20.4766 27.2912 20.502 27.3129 20.5237C27.3345 20.5453 27.36 20.5562 27.3892 20.5562H27.9992C28.0279 20.5562 28.0534 20.5453 28.0755 20.5237C28.0972 20.502 28.1081 20.4766 28.1081 20.4474V18.5041L28.1076 18.5036ZM27.0319 19.9051C27.1064 19.8816 27.1762 19.8533 27.2417 19.8208V19.2221H26.931C26.8368 19.2221 26.7585 19.2301 26.6968 19.2466C26.635 19.263 26.586 19.2875 26.5497 19.32C26.5134 19.3525 26.4879 19.3945 26.4733 19.4454C26.4587 19.4962 26.4516 19.5542 26.4516 19.6197V19.6686C26.4516 19.7845 26.4799 19.859 26.536 19.8915C26.5921 19.924 26.6784 19.9405 26.7948 19.9405C26.8782 19.9405 26.957 19.9287 27.0319 19.9051ZM30.7874 20.3979V19.9136C30.7874 19.8844 30.7775 19.8618 30.7572 19.8453C30.7374 19.8288 30.7129 19.8208 30.6837 19.8208H30.6728C30.571 19.8316 30.4739 19.8406 30.3815 19.8481C30.2891 19.8552 30.1647 19.859 30.0086 19.859C29.9469 19.859 29.8889 19.8491 29.8342 19.8288C29.7796 19.809 29.7324 19.7746 29.6924 19.7252C29.6523 19.6762 29.6207 19.6112 29.5971 19.5292C29.5736 19.4472 29.5618 19.3469 29.5618 19.2272V18.7703C29.5618 18.6506 29.5736 18.5498 29.5971 18.4683C29.6207 18.3863 29.6523 18.3213 29.6924 18.2723C29.7324 18.2233 29.7796 18.189 29.8342 18.1687C29.8884 18.1489 29.9464 18.1386 30.0086 18.1386C30.1647 18.1386 30.2891 18.1423 30.3815 18.1494C30.4744 18.1565 30.5715 18.1659 30.6728 18.1767H30.6837C30.7129 18.1767 30.7374 18.1687 30.7572 18.1522C30.777 18.1357 30.7874 18.1131 30.7874 18.0844V17.6001C30.7874 17.5601 30.7784 17.5318 30.76 17.5158C30.7416 17.4998 30.7129 17.4856 30.6728 17.4748C30.5965 17.4569 30.4975 17.4385 30.3758 17.4201C30.2542 17.4022 30.1119 17.3928 29.9483 17.3928C29.5632 17.3928 29.2559 17.5106 29.0254 17.7466C28.7949 17.9822 28.6794 18.3237 28.6794 18.7698V19.2268C28.6794 19.6734 28.7949 20.0144 29.0254 20.25C29.2559 20.486 29.5637 20.6038 29.9483 20.6038C30.1119 20.6038 30.2542 20.5948 30.3758 20.5764C30.4975 20.5581 30.5965 20.5402 30.6728 20.5218C30.7129 20.511 30.7416 20.4973 30.76 20.4808C30.7784 20.4643 30.7874 20.4365 30.7874 20.3965V20.3979ZM33.1348 20.0323V20.4535C33.1348 20.5147 33.0999 20.5505 33.0311 20.5614C32.9477 20.576 32.8751 20.5868 32.8133 20.5939C32.7516 20.6009 32.6804 20.6047 32.6007 20.6047C32.4527 20.6047 32.3217 20.5929 32.2081 20.5694C32.0945 20.5458 31.9997 20.4996 31.9238 20.4304C31.8479 20.3616 31.7904 20.266 31.7504 20.1444C31.7108 20.0229 31.691 19.866 31.691 19.6738V18.0952L31.2554 18.0245C31.2262 18.0175 31.1998 18.0038 31.1762 17.9836C31.1527 17.9638 31.1409 17.9393 31.1409 17.9101V17.5506C31.1409 17.5214 31.1527 17.4955 31.1762 17.4715C31.1998 17.4479 31.2262 17.4362 31.2554 17.4362H31.691V16.9896C31.691 16.9604 31.7018 16.9373 31.7235 16.9189C31.7452 16.901 31.7702 16.8883 31.7994 16.8807L32.4598 16.7667H32.4763C32.505 16.7667 32.5286 16.7748 32.5465 16.7912C32.5649 16.8077 32.5739 16.8303 32.5739 16.8595V17.4366H33.0207C33.0495 17.4366 33.0749 17.4475 33.0971 17.4696C33.1188 17.4917 33.1296 17.5172 33.1296 17.5464V17.9911C33.1296 18.0203 33.1188 18.0462 33.0971 18.0679C33.0754 18.09 33.05 18.1009 33.0207 18.1009H32.5739V19.6847C32.5739 19.7935 32.5828 19.8632 32.6012 19.8943C32.6191 19.9249 32.67 19.9405 32.7535 19.9405H33.0203C33.0966 19.9405 33.1348 19.9711 33.1348 20.0323Z" fill="#005697"/>
</g>
<rect x="0.5" y="0.5" width="36.7143" height="23" rx="2.5" stroke="#D6D6D6"/>
<defs>
<clipPath id="clip0_2747_18920">
<rect width="37.7143" height="24" rx="3" fill="white"/>
</clipPath>
</defs>
</svg>
