<svg width="38" height="24" viewBox="0 0 38 24" fill="none" xmlns="http://www.w3.org/2000/svg">
<rect x="0.5" y="0.5" width="36.7143" height="23" rx="2.5" fill="white"/>
<g clip-path="url(#clip0_2747_18938)">
<rect width="22.3508" height="19.83" transform="translate(8 2)" fill="white"/>
<path d="M8.05316 2.05908V21.7829H19.5217C27.0871 21.7829 30.3678 17.5349 30.3678 11.9017C30.3678 6.29042 27.0871 2.05908 19.5217 2.05908H8.05316Z" fill="white"/>
<path d="M9.29266 3.30298H19.5232C26.467 3.30298 29.1286 7.10504 29.1286 11.9012C29.1286 17.6524 25.4118 20.5381 19.5232 20.5381H9.29266V3.30298ZM10.2845 4.29743V19.5443H19.5232C25.1011 19.5443 28.1359 16.9382 28.1359 11.9012C28.1359 6.72471 24.8461 4.29712 19.5232 4.29712H10.2845V4.29743Z" fill="black"/>
<path d="M11.524 13.0225H14.4815V18.3002H11.524V13.0225Z" fill="black"/>
<path d="M13.0024 12.2062C14.0175 12.2062 14.8405 11.3811 14.8405 10.3632C14.8405 9.34539 14.0175 8.52026 13.0024 8.52026C11.9873 8.52026 11.1644 9.34539 11.1644 10.3632C11.1644 11.3811 11.9873 12.2062 13.0024 12.2062Z" fill="black"/>
<path d="M20.6836 11.2254V12.08H18.5763V8.65065H20.6163V9.50494H19.4283V9.90199H20.5517V10.7566H19.4283V11.2257L20.6836 11.2254ZM21.0523 12.0806L22.0835 8.64943H23.2957L24.3266 12.0806H23.4398L23.2463 11.4169H22.1317L21.938 12.0806H21.0523ZM22.3816 10.5632H22.9983L22.7154 9.59402H22.6638L22.3816 10.5632ZM24.7551 8.64974H25.6077V11.2257H26.8697C26.5234 6.5517 22.857 5.54175 19.5235 5.54175H15.9708V8.65156H16.4966C17.4553 8.65156 18.0505 9.30338 18.0505 10.3522C18.0505 11.4346 17.4696 12.0806 16.4966 12.0806H15.9708V18.3027H19.5238C24.9409 18.3027 26.8275 15.7799 26.8942 12.08H24.7551V8.64974ZM15.9702 9.50586V11.2257H16.4966C16.8613 11.2257 17.1985 11.1199 17.1985 10.3519C17.1985 9.60193 16.8234 9.50586 16.4966 9.50586H15.9702Z" fill="#D50072"/>
</g>
<rect x="0.5" y="0.5" width="36.7143" height="23" rx="2.5" stroke="#D6D6D6"/>
<defs>
<clipPath id="clip0_2747_18938">
<rect width="22.3508" height="19.83" fill="white" transform="translate(8 2)"/>
</clipPath>
</defs>
</svg>
