<svg width="38" height="24" viewBox="0 0 38 24" fill="none" xmlns="http://www.w3.org/2000/svg">
<g clip-path="url(#clip0_383_2764)">
<rect width="37.7143" height="24" rx="3" fill="white"/>
<g clip-path="url(#clip1_383_2764)">
<path d="M0.862069 -2H36.5862C38.7103 -2 40.4483 -0.262069 40.4483 1.86207V22.1379C40.4483 24.2621 38.7103 26 36.5862 26H0.862069C-1.26207 26 -3 24.2621 -3 22.1379V1.86207C-3 -0.262069 -1.26207 -2 0.862069 -2Z" fill="#F5B1C6"/>
<path d="M0.862098 -1.51721H36.5862C38.4207 -1.51721 39.9655 0.0276157 39.9655 1.8621V22.138C39.9655 23.9724 38.4207 25.5173 36.5862 25.5173H0.862098C-0.972384 25.5173 -2.51721 23.9724 -2.51721 22.138V1.8621C-2.51721 0.0276157 -0.972384 -1.51721 0.862098 -1.51721Z" stroke="#D7D7D7"/>
<mask id="mask0_383_2764" style="mask-type:luminance" maskUnits="userSpaceOnUse" x="-2" y="0" width="41" height="24">
<path d="M38.5173 0.896606H-1.45514V23.1035H38.5173V0.896606Z" fill="white"/>
</mask>
<g mask="url(#mask0_383_2764)">
<path d="M2.40693 0.896606H34.7518C36.8759 0.896606 38.6138 2.63454 38.6138 4.75868V19.2414C38.6138 21.3656 36.8759 23.1035 34.7518 23.1035H2.40693C0.282792 23.1035 -1.45514 21.3656 -1.45514 19.2414V4.75868C-1.45514 2.63454 0.282792 0.896606 2.40693 0.896606Z" fill="#F5B1C6"/>
<path d="M32.8381 13.5028C32.4172 13.5028 31.9963 13.8395 31.9963 14.3445C31.9963 14.7654 32.333 15.1862 32.8381 15.1862C33.2589 15.1862 33.6798 14.8496 33.6798 14.3445C33.6798 13.8395 33.3431 13.5028 32.8381 13.5028ZM30.1445 12.8294C30.1445 12.156 29.6395 11.651 28.9661 11.5668C28.2927 11.5668 27.7877 12.0718 27.7035 12.7452C27.7035 13.4186 28.2085 13.9236 28.8819 14.0078C28.8819 14.0078 28.8819 14.0078 28.9661 14.0078C29.6395 14.0078 30.1445 13.5028 30.1445 12.8294ZM30.1445 10.6409H31.4913V15.1021H30.1445V14.7654C29.7237 15.0179 29.3028 15.1862 28.8819 15.1862C27.6193 15.1862 26.5251 14.1762 26.5251 12.8294C26.5251 11.4826 27.5351 10.4725 28.8819 10.4725C29.387 10.4725 29.8078 10.6409 30.1445 10.8934V10.6409ZM19.6229 11.2301V10.6409H18.2761V15.1021H19.6229V12.9977C19.6229 12.3244 20.3804 11.9035 20.8855 11.9035V10.6409C20.3804 10.6409 19.9595 10.8092 19.6229 11.2301ZM16.2559 12.8294C16.2559 12.156 15.7509 11.651 15.0775 11.5668C14.4041 11.5668 13.8991 12.0718 13.8149 12.7452C13.8149 13.4186 14.3199 13.9236 14.9933 14.0078C14.9933 14.0078 14.9933 14.0078 15.0775 14.0078C15.7509 14.0078 16.2559 13.5028 16.2559 12.8294ZM16.2559 10.6409H17.6027V15.1021H16.2559V14.7654C15.8351 15.0179 15.4142 15.1862 14.9933 15.1862C13.7307 15.1862 12.6365 14.1762 12.6365 12.8294C12.6365 11.4826 13.6466 10.4725 14.9933 10.4725C15.4984 10.4725 15.9192 10.6409 16.2559 10.8934V10.6409ZM24.1682 10.4725C23.6632 10.4725 23.1581 10.6409 22.8214 11.0618V10.5567H21.4747V15.0179H22.8214V12.661C22.8214 12.156 23.1581 11.7351 23.6632 11.651C23.7473 11.651 23.7473 11.651 23.8315 11.651C24.4207 11.651 24.7574 11.9877 24.7574 12.661V15.0179H26.1042V12.2402C26.1042 11.3143 25.3466 10.4725 24.3366 10.4725C24.2524 10.4725 24.2524 10.4725 24.1682 10.4725ZM10.7005 15.0179H12.0473V8.62073H10.7005V15.0179ZM4.72418 15.0179H6.15513V8.62073H4.72418V15.0179ZM9.77458 8.62073C9.77458 9.9675 9.26954 11.3143 8.25946 12.2402L10.2796 15.0179H8.51198L6.32347 12.0718L6.91269 11.651C7.83859 10.9776 8.42781 9.88333 8.42781 8.7049H9.77458V8.62073Z" fill="#0A0B0A"/>
</g>
</g>
</g>
<defs>
<clipPath id="clip0_383_2764">
<rect width="37.7143" height="24" rx="3" fill="white"/>
</clipPath>
<clipPath id="clip1_383_2764">
<rect width="43.4483" height="28" fill="white" transform="translate(-3 -2)"/>
</clipPath>
</defs>
</svg>
